<?xml version="1.0" encoding="iso-8859-1"?>
<!-- Generator: Adobe Illustrator 19.0.0, SVG Export Plug-In . SVG Version: 6.00 Build 0)  -->
<svg version="1.1" id="Capa_1" xmlns="http://www.w3.org/2000/svg" xmlns:xlink="http://www.w3.org/1999/xlink" x="0px" y="0px"
	 viewBox="0 0 512.001 512.001" style="enable-background:new 0 0 512.001 512.001;" xml:space="preserve">
<g>
	<polygon style="fill:#81898C;" points="190.408,361.132 171.293,330.216 152.178,361.132 171.293,364.716 	"/>
	<polygon style="fill:#81898C;" points="131.752,361.132 112.637,330.216 93.522,361.132 112.637,364.716 	"/>
	<polygon style="fill:#81898C;" points="73.096,361.132 53.982,330.216 34.866,361.132 53.981,364.716 	"/>
</g>
<path style="fill:#585D60;" d="M494.942,240.276l9.112-48.793c0.286-1.532-0.035-3.116-0.896-4.415l-15.22-22.971
	c-1.505-2.271-4.351-3.243-6.931-2.367l-18.63,6.325c-3.132,1.063-4.813,4.46-3.758,7.595l7.097,21.089
	c0.418,1.242,0.418,2.586,0,3.827l-9.006,26.76L494.942,240.276z"/>
<path style="fill:#CADFE6;" d="M466.269,418.48c21.114,0,38.231-17.117,38.231-38.231V265.558c0-21.114-17.117-38.231-38.231-38.231
	H430.77l-21.845,69.146v64.663C408.925,392.806,434.599,418.48,466.269,418.48"/>
<path style="fill:#7F8C8C;" d="M466.269,418.48L466.269,418.48L466.269,418.48z"/>
<path style="fill:#A4B8BF;" d="M466.269,227.327h-19c21.114,0,38.231,17.117,38.231,38.231v114.691
	c0,18.177-12.69,33.381-29.692,37.262c3.394,0.626,6.886,0.969,10.461,0.969c21.114,0,38.231-17.116,38.231-38.231V265.558
	C504.5,244.443,487.383,227.327,466.269,227.327z"/>
<path style="fill:#CADFE6;" d="M274.404,332.727l-74.73,28.025c-0.674,0.253-1.387,0.382-2.107,0.382H32.971
	c-3.594,0-6.382,3.139-5.966,6.709c3.322,28.511,27.556,50.638,56.958,50.638h246.5c1.298,0,2.561-0.421,3.6-1.2l72.462-54.347
	c1.511-1.133,2.4-2.912,2.4-4.801l-0.004-33.329c0-3.566-3.093-6.345-6.639-5.965l-126.41,13.54
	C275.37,332.433,274.876,332.55,274.404,332.727z"/>
<g>
	<polygon style="fill:#81898C;" points="64.848,265.557 83.962,296.473 103.077,265.557 83.963,261.973 	"/>
	<polygon style="fill:#81898C;" points="122.193,265.557 141.307,296.473 160.423,265.557 141.308,261.973 	"/>
	<polygon style="fill:#81898C;" points="179.539,265.557 198.653,296.473 217.769,265.557 198.655,261.973 	"/>
	<path style="fill:#81898C;" d="M428.038,330.403h-38.229c-4.142,0-7.5-3.357-7.5-7.5s3.358-7.5,7.5-7.5h38.229
		c4.142,0,7.5,3.357,7.5,7.5C435.538,327.045,432.18,330.403,428.038,330.403z"/>
	<path style="fill:#81898C;" d="M504.5,330.403v-15l0,0h-38.233c-4.142,0-7.5,3.357-7.5,7.5s3.358,7.5,7.5,7.5H504.5L504.5,330.403z
		"/>
	<path style="fill:#81898C;" d="M466.269,418.48L466.269,418.48L466.269,418.48z"/>
	<path style="fill:#81898C;" d="M466.267,353.634c-4.142,0-7.5,3.357-7.5,7.5v56.842c2.457,0.321,4.957,0.504,7.502,0.504
		c2.567,0,5.073-0.257,7.498-0.74v-56.606C473.767,356.991,470.409,353.634,466.267,353.634z"/>
</g>
<path style="fill:#CADFE6;" d="M466.269,418.48L466.269,418.48L466.269,418.48z"/>
<g>
	<path style="fill:#81898C;" d="M217.766,177.483c-1.127,0-2.271-0.255-3.348-0.793c-3.705-1.853-5.207-6.357-3.355-10.063
		l9.556-19.117c1.161-2.323,3.442-3.881,6.03-4.115l105.136-9.556c2.738-0.261,5.393,1.021,6.919,3.309l19.116,28.673
		c2.298,3.446,1.367,8.103-2.08,10.4c-3.445,2.299-8.103,1.367-10.4-2.08l-16.641-24.96l-96.53,8.773l-7.688,15.38
		C223.167,175.962,220.517,177.483,217.766,177.483z"/>
	<path style="fill:#81898C;" d="M83.963,418.481h7.5l0,0v-19.116c0-4.142-3.358-7.5-7.5-7.5s-7.5,3.358-7.5,7.5v18.612
		C78.92,418.298,81.42,418.481,83.963,418.481z"/>
</g>
<path style="fill:#A4B8BF;" d="M408.92,318.128l-36.201,31.676c-1.288,1.127-2.997,1.651-4.695,1.438l-73.791-9.224l-8.057-10.742
	l-11.06,1.185l-10.187,3.82l13.303,17.737l5.094,6.792l8.425,1.053l76.462,9.558l8.9,1.113l6.75-5.906l25.06-21.927L408.92,318.128z
	"/>
<path style="fill:#E2F1F6;" d="M83.962,150.865c-42.229,0-76.462,34.233-76.462,76.462v54.904c0,4.944,5.645,7.767,9.6,4.8
	l27.031-20.274c1.039-0.779,2.302-1.2,3.6-1.2h93.577h92.577c1.889,0,3.667,0.889,4.8,2.4l54.019,72.024
	c0.977,1.302,2.441,2.152,4.056,2.354l71.264,8.908c1.699,0.212,3.407-0.311,4.695-1.438l71.572-62.625
	c1.748-1.529,2.456-3.93,1.818-6.164l-36.63-128.209c-0.36-1.259-1.121-2.366-2.169-3.152l-72.625-54.471
	c-1.41-1.057-3.213-1.441-4.931-1.051l-166.632,37.909c-1.711,0.389-3.166,1.508-3.981,3.062l-6.587,12.548
	c-1.036,1.974-3.082,3.211-5.312,3.211L83.962,150.865z"/>
<path style="fill:#C5DDE6;" d="M407.311,149.655l-72.625-54.471c-1.41-1.057-3.213-1.441-4.931-1.051l-12.637,2.875l71.807,53.857
	l38.229,133.808l-73.961,64.715l14.83,1.854c1.699,0.212,3.407-0.311,4.695-1.438l71.572-62.625c1.748-1.529,2.456-3.93,1.818-6.164
	l-36.63-128.209C409.12,151.547,408.358,150.44,407.311,149.655z"/>
<g>
	<polygon style="fill:#585D60;" points="343.069,157.216 313.347,198.653 236.886,189.095 227.327,150.864 332.463,141.308 	"/>
	<polygon style="fill:#585D60;" points="313.348,303.788 351.579,322.903 389.809,284.673 380.252,236.885 351.579,256 
		361.138,275.115 	"/>
</g>
<polygon style="fill:#4D5255;" points="332.463,141.308 314.548,142.936 324.069,157.216 295.911,196.474 313.347,198.653 
	343.069,157.216 "/>
<path style="fill:#81898C;" d="M45.726,225.27c-1.127,0-2.271-0.255-3.348-0.794c-3.705-1.853-5.207-6.357-3.354-10.063
	l9.558-19.116c1.27-2.54,3.867-4.146,6.708-4.146h28.674c4.142,0,7.5,3.357,7.5,7.5s-3.358,7.5-7.5,7.5H59.925l-7.485,14.971
	C51.125,223.75,48.477,225.27,45.726,225.27z"/>
<path d="M83.964,191.152H55.29c-2.841,0-5.438,1.604-6.708,4.146l-9.559,19.116c-1.853,3.705-0.351,8.21,3.354,10.063
	c1.077,0.538,2.221,0.794,3.348,0.794c2.751,0,5.4-1.52,6.714-4.147l7.486-14.971h24.039c4.142,0,7.5-3.357,7.5-7.5
	S88.106,191.152,83.964,191.152z"/>
<path d="M313.349,206.154c2.397,0,4.674-1.15,6.093-3.129l23.402-32.627l2.495,3.743c2.298,3.447,6.956,4.379,10.4,2.08
	c3.447-2.298,4.378-6.954,2.08-10.4l-19.116-28.673c-1.525-2.288-4.181-3.569-6.919-3.309l-105.136,9.556
	c-0.041,0.004-0.08,0.014-0.12,0.019c-0.223,0.024-0.446,0.06-0.669,0.104c-0.079,0.016-0.159,0.029-0.238,0.047
	c-0.038,0.009-0.075,0.013-0.113,0.022c-0.546,0.137-1.06,0.334-1.544,0.576c-0.057,0.029-0.111,0.061-0.167,0.091
	c-0.207,0.11-0.408,0.229-0.601,0.357c-0.06,0.04-0.119,0.079-0.178,0.121c-0.201,0.141-0.394,0.291-0.578,0.451
	c-0.036,0.031-0.075,0.06-0.111,0.092c-0.218,0.196-0.425,0.402-0.618,0.621c-0.034,0.039-0.064,0.081-0.098,0.12
	c-0.153,0.18-0.297,0.367-0.431,0.56c-0.051,0.073-0.099,0.147-0.147,0.221c-0.122,0.189-0.235,0.384-0.34,0.583
	c-0.023,0.044-0.053,0.084-0.075,0.129l-9.556,19.117c-1.852,3.705-0.35,8.21,3.355,10.063c1.077,0.538,2.221,0.793,3.348,0.793
	c2.751,0,5.401-1.521,6.714-4.148l0.49-0.98l4.641,18.56c0.751,3.005,3.272,5.238,6.346,5.623l76.461,9.559
	C312.729,206.135,313.039,206.154,313.349,206.154z M242.916,182.29l-6.188-24.75l91.971-8.359l5.253,7.879l-24.099,33.598
	L242.916,182.29z"/>
<path d="M387.607,235.414c-0.491-2.453-2.173-4.501-4.484-5.458c-2.312-0.959-4.949-0.701-7.03,0.688l-28.674,19.115
	c-3.147,2.098-4.24,6.212-2.548,9.595l6.453,12.903l-41.833,25.099c-2.347,1.409-3.741,3.984-3.636,6.72
	c0.105,2.735,1.692,5.196,4.141,6.42l38.231,19.114c1.066,0.533,2.213,0.792,3.352,0.792c1.946,0,3.866-0.757,5.306-2.196
	l38.229-38.229c1.773-1.773,2.543-4.315,2.051-6.774L387.607,235.414z M350.099,313.777l-21.175-10.587l36.073-21.643
	c3.36-2.017,4.602-6.281,2.849-9.786l-6.598-13.193l13.846-9.23l6.573,32.871L350.099,313.777z"/>
<path d="M502.946,238.274l8.927-47.802c0.358-1.916-0.044-3.896-1.121-5.52l-19.116-28.851c-1.88-2.839-5.438-4.056-8.663-2.959
	l-28.673,9.734c-3.915,1.329-6.016,5.575-4.697,9.493l8.845,26.283l-7.126,21.174h-14.893l-20.291-71.022
	c-0.45-1.573-1.402-2.957-2.711-3.939l-76.462-57.349c-1.763-1.321-4.018-1.8-6.164-1.313l-172.037,39.14
	c-2.139,0.487-3.958,1.886-4.977,3.827l-7.451,14.193l-62.373,0.001C37.665,143.364,0,181.03,0,227.326v66.904
	c0,2.841,1.605,5.438,4.146,6.708c2.542,1.272,5.582,0.996,7.854-0.708l36.231-27.175h12.435l16.917,27.361
	c1.367,2.21,3.78,3.556,6.379,3.556s5.013-1.346,6.379-3.556l16.917-27.361h10.754l16.917,27.361c1.367,2.21,3.78,3.556,6.379,3.556
	s5.013-1.346,6.379-3.556l16.917-27.361h10.753l16.917,27.361c1.367,2.21,3.78,3.556,6.379,3.556s5.013-1.346,6.379-3.556
	l16.917-27.361h11.185l9.597,12.796c0.002,0.003,0.005,0.005,0.007,0.008l29.697,39.596l-75.14,28.179h-2.705l-16.917-27.362
	c-1.367-2.21-3.78-3.556-6.379-3.556s-5.012,1.346-6.379,3.556l-16.918,27.362h-12.062l-16.917-27.362
	c-1.367-2.21-3.78-3.556-6.379-3.556s-5.013,1.346-6.379,3.556l-16.92,27.362H77.278l-16.917-27.362
	c-1.367-2.21-3.78-3.556-6.379-3.556c-2.599,0-5.013,1.346-6.379,3.556l-16.918,27.362h-4.068c-4.142,0-7.5,3.357-7.5,7.5
	c0,35.757,29.09,64.847,64.847,64.847h154.079c4.142,0,7.5-3.357,7.5-7.5s-3.358-7.5-7.5-7.5H91.464v-11.616
	c0-4.143-3.358-7.5-7.5-7.5s-7.5,3.357-7.5,7.5v11.043c-21.493-3.258-38.528-20.281-41.784-41.773h163.976h76.462
	c4.142,0,7.5-3.357,7.5-7.5s-3.358-7.5-7.5-7.5h-35.104l37.735-14.151c1.378-0.517,2.509-1.4,3.337-2.493l7.146,9.528
	c1.221,1.628,3.051,2.689,5.07,2.942l76.461,9.558c0.311,0.038,0.621,0.058,0.931,0.058c1.806,0,3.563-0.652,4.938-1.855
	l25.79-22.566l0.003,22.73l-71.462,53.597h-56.005c-4.142,0-7.5,3.357-7.5,7.5s3.358,7.5,7.5,7.5h58.505
	c1.623,0,3.202-0.526,4.5-1.5l65.97-49.478c6.369,29.111,32.338,50.976,63.332,50.977c0.001,0,0.001,0,0.002,0h0.001h0.001
	c25.216,0,45.731-20.515,45.731-45.731V265.558C512,255.34,508.63,245.896,502.946,238.274z M83.962,282.211l-5.66-9.154h11.32
	L83.962,282.211z M141.308,282.211l-5.66-9.154h11.32L141.308,282.211z M198.653,282.211l-5.66-9.154h11.32L198.653,282.211z
	 M171.293,344.478l5.66,9.154h-11.32L171.293,344.478z M112.637,344.478l5.66,9.154h-11.32L112.637,344.478z M53.981,344.478
	l5.66,9.154h-11.32L53.981,344.478z M482.324,169.203l14.246,21.501l-6.67,35.716c-6.667-4.041-14.447-6.414-22.759-6.571
	l6.328-18.803c0.522-1.553,0.522-3.232,0-4.784l-7.264-21.586L482.324,169.203z M368.286,343.716l-69.964-8.745l-55.437-73.915
	c-0.002-0.003-0.005-0.006-0.007-0.009l-14.328-19.104c-2.486-3.314-7.186-3.985-10.5-1.5c-3.313,2.485-3.985,7.187-1.5,10.5
	l5.335,7.113H45.731c-1.623,0-3.202,0.526-4.5,1.5L15,279.231v-51.904c0-38.025,30.936-68.962,68.962-68.962l66.906-0.001
	c2.788,0,5.345-1.546,6.641-4.014l7.952-15.146L330.742,101.6l71.666,53.752l21.198,74.195c0.002,0.005,0.003,0.01,0.004,0.015
	l15.028,52.599L368.286,343.716z M473.767,410.052v-48.918c0-4.143-3.358-7.5-7.5-7.5s-7.5,3.357-7.5,7.5v49.281
	c-23.937-3.629-42.34-24.342-42.342-49.276c0-0.002,0-0.004,0-0.007l-0.004-30.73h11.617c4.142,0,7.5-3.357,7.5-7.5
	s-3.358-7.5-7.5-7.5h-4.614l28.669-25.085c2.185-1.912,3.07-4.913,2.273-7.705l-13.652-47.785h25.556
	c16.945,0,30.731,13.785,30.731,30.73v49.845h-30.733c-4.142,0-7.5,3.357-7.5,7.5s3.358,7.5,7.5,7.5H497v49.847
	C497,394.609,487.1,406.696,473.767,410.052z"/>
<g>
</g>
<g>
</g>
<g>
</g>
<g>
</g>
<g>
</g>
<g>
</g>
<g>
</g>
<g>
</g>
<g>
</g>
<g>
</g>
<g>
</g>
<g>
</g>
<g>
</g>
<g>
</g>
<g>
</g>
</svg>
