<?xml version="1.0" encoding="iso-8859-1"?>
<!-- Generator: Adobe Illustrator 19.0.0, SVG Export Plug-In . SVG Version: 6.00 Build 0)  -->
<svg xmlns="http://www.w3.org/2000/svg" xmlns:xlink="http://www.w3.org/1999/xlink" version="1.1" id="Capa_1" x="0px" y="0px" viewBox="0 0 512.001 512.001" style="enable-background:new 0 0 512.001 512.001;" xml:space="preserve" width="512px" height="512px">
<g>
	<g>
		<path d="M83.964,191.152H55.29c-2.841,0-5.438,1.604-6.708,4.146l-9.559,19.116c-1.853,3.705-0.351,8.21,3.354,10.063    c1.077,0.538,2.221,0.794,3.348,0.794c2.751,0,5.4-1.52,6.714-4.147l7.486-14.971h24.039c4.142,0,7.5-3.357,7.5-7.5    S88.106,191.152,83.964,191.152z" fill="#FFFFFF"/>
	</g>
</g>
<g>
	<g>
		<path d="M357.819,165.821l-19.116-28.673c-1.525-2.288-4.181-3.569-6.919-3.309l-105.136,9.556    c-0.041,0.004-0.08,0.014-0.12,0.019c-0.223,0.024-0.446,0.06-0.669,0.104c-0.079,0.016-0.159,0.029-0.238,0.047    c-0.038,0.009-0.075,0.013-0.113,0.022c-0.546,0.137-1.06,0.334-1.544,0.576c-0.057,0.029-0.111,0.061-0.167,0.091    c-0.207,0.11-0.408,0.229-0.601,0.357c-0.06,0.04-0.119,0.079-0.178,0.121c-0.201,0.141-0.394,0.291-0.578,0.451    c-0.036,0.031-0.075,0.06-0.111,0.092c-0.218,0.196-0.425,0.402-0.618,0.621c-0.034,0.039-0.064,0.081-0.098,0.12    c-0.153,0.18-0.297,0.367-0.431,0.56c-0.051,0.073-0.099,0.147-0.147,0.221c-0.122,0.189-0.235,0.384-0.34,0.583    c-0.023,0.044-0.053,0.084-0.075,0.129l-9.556,19.117c-1.852,3.705-0.35,8.21,3.355,10.063c1.077,0.538,2.221,0.793,3.348,0.793    c2.751,0,5.401-1.521,6.714-4.148l0.49-0.98l4.641,18.56c0.751,3.005,3.272,5.238,6.346,5.623l76.461,9.559    c0.31,0.039,0.62,0.058,0.93,0.058c2.397,0,4.674-1.15,6.093-3.129l23.402-32.627l2.495,3.743c2.298,3.447,6.956,4.379,10.4,2.08    C359.186,173.923,360.117,169.267,357.819,165.821z M309.853,190.658l-66.937-8.368l-6.188-24.75l91.971-8.359l5.253,7.879    L309.853,190.658z" fill="#FFFFFF"/>
	</g>
</g>
<g>
	<g>
		<path d="M397.165,283.203l-9.558-47.789c-0.491-2.453-2.173-4.501-4.484-5.458c-2.312-0.959-4.949-0.701-7.03,0.688    l-28.674,19.115c-3.147,2.098-4.24,6.212-2.548,9.595l6.453,12.903l-41.833,25.099c-2.347,1.409-3.741,3.984-3.636,6.72    c0.105,2.735,1.692,5.196,4.141,6.42l38.231,19.114c1.066,0.533,2.213,0.792,3.352,0.792c1.946,0,3.866-0.757,5.306-2.196    l38.229-38.229C396.887,288.204,397.657,285.662,397.165,283.203z M350.099,313.777l-21.175-10.587l36.073-21.643    c3.36-2.017,4.602-6.281,2.849-9.786l-6.598-13.193l13.846-9.23l6.573,32.871L350.099,313.777z" fill="#FFFFFF"/>
	</g>
</g>
<g>
	<g>
		<path d="M511.873,190.472c0.358-1.916-0.044-3.896-1.121-5.52l-19.116-28.851c-1.88-2.839-5.438-4.056-8.663-2.959l-28.673,9.734    c-3.915,1.329-6.016,5.575-4.697,9.493l8.845,26.283l-7.126,21.174h-14.893l-20.291-71.022c-0.45-1.573-1.402-2.957-2.711-3.939    l-76.462-57.349c-1.763-1.321-4.018-1.8-6.164-1.313l-172.037,39.14c-2.139,0.487-3.958,1.886-4.977,3.827l-7.451,14.193    l-62.373,0.001C37.665,143.364,0,181.03,0,227.326v66.904c0,2.841,1.605,5.438,4.146,6.708c2.542,1.272,5.582,0.996,7.854-0.708    l36.231-27.175h12.435l16.917,27.361c1.367,2.21,3.78,3.556,6.379,3.556s5.013-1.346,6.379-3.556l16.917-27.361h10.754    l16.917,27.361c1.367,2.21,3.78,3.556,6.379,3.556s5.013-1.346,6.379-3.556l16.917-27.361h10.753l16.917,27.361    c1.367,2.21,3.78,3.556,6.379,3.556s5.013-1.346,6.379-3.556l16.917-27.361h11.185l9.597,12.796    c0.002,0.003,0.005,0.005,0.007,0.008l29.697,39.596l-75.14,28.179h-2.705l-16.917-27.362c-1.367-2.21-3.78-3.556-6.379-3.556    s-5.012,1.346-6.379,3.556l-16.918,27.362h-12.062l-16.917-27.362c-1.367-2.21-3.78-3.556-6.379-3.556s-5.013,1.346-6.379,3.556    l-16.92,27.362H77.278l-16.917-27.362c-1.367-2.21-3.78-3.556-6.379-3.556s-5.013,1.346-6.379,3.556l-16.918,27.362h-4.068    c-4.142,0-7.5,3.357-7.5,7.5c0,35.757,29.09,64.847,64.847,64.847h154.079c4.142,0,7.5-3.357,7.5-7.5s-3.358-7.5-7.5-7.5H91.464    v-11.616c0-4.143-3.358-7.5-7.5-7.5c-4.142,0-7.5,3.357-7.5,7.5v11.043c-21.493-3.258-38.528-20.281-41.784-41.773h163.976h76.462    c4.142,0,7.5-3.357,7.5-7.5s-3.358-7.5-7.5-7.5h-35.104l37.735-14.151c1.378-0.517,2.509-1.4,3.337-2.493l7.146,9.528    c1.221,1.628,3.051,2.689,5.07,2.942l76.461,9.558c0.311,0.038,0.621,0.058,0.931,0.058c1.806,0,3.563-0.652,4.938-1.855    l25.79-22.566l0.003,22.73l-71.462,53.597h-56.005c-4.142,0-7.5,3.357-7.5,7.5s3.358,7.5,7.5,7.5h58.505    c1.623,0,3.202-0.526,4.5-1.5l65.97-49.478c6.369,29.111,32.338,50.976,63.332,50.977c0.001,0,0.001,0,0.002,0h0.001h0.001    c25.216,0,45.731-20.515,45.731-45.731V265.558c0-10.218-3.37-19.662-9.054-27.284L511.873,190.472z M48.321,353.632l5.66-9.154    l5.66,9.154H48.321z M106.977,353.632l5.66-9.154l5.66,9.154H106.977z M165.633,353.632l5.66-9.154l5.66,9.154H165.633z     M482.324,169.203l14.246,21.501l-6.67,35.716c-6.667-4.041-14.447-6.414-22.759-6.571l6.328-18.803    c0.522-1.553,0.522-3.232,0-4.784l-7.264-21.586L482.324,169.203z M83.962,282.211l-5.66-9.154h11.32L83.962,282.211z     M141.308,282.211l-5.66-9.154h11.32L141.308,282.211z M198.653,282.211l-5.66-9.154h11.32L198.653,282.211z M368.286,343.716    l-69.964-8.745l-55.437-73.915c-0.002-0.003-0.005-0.006-0.007-0.009l-14.328-19.104c-2.486-3.314-7.186-3.985-10.5-1.5    c-3.313,2.485-3.985,7.187-1.5,10.5l5.335,7.113H45.731c-1.623,0-3.202,0.526-4.5,1.5L15,279.231v-51.904    c0-38.025,30.936-68.962,68.962-68.962l66.906-0.001c2.788,0,5.345-1.546,6.641-4.014l7.952-15.146L330.742,101.6l71.666,53.752    l21.198,74.195c0.002,0.005,0.003,0.01,0.004,0.015l15.028,52.599L368.286,343.716z M497.001,315.402h-30.733    c-4.142,0-7.5,3.357-7.5,7.5s3.358,7.5,7.5,7.5H497v49.847c0,14.36-9.9,26.447-23.233,29.803v-48.918c0-4.143-3.358-7.5-7.5-7.5    c-4.142,0-7.5,3.357-7.5,7.5v49.281c-23.937-3.629-42.34-24.342-42.342-49.276c0-0.002,0-0.004,0-0.007l-0.004-30.73h11.617    c4.142,0,7.5-3.357,7.5-7.5s-3.358-7.5-7.5-7.5h-4.614l28.669-25.085c2.185-1.912,3.07-4.913,2.273-7.705l-13.652-47.785h25.556    c16.945,0,30.731,13.785,30.731,30.73V315.402z" fill="#FFFFFF"/>
	</g>
</g>
<g>
</g>
<g>
</g>
<g>
</g>
<g>
</g>
<g>
</g>
<g>
</g>
<g>
</g>
<g>
</g>
<g>
</g>
<g>
</g>
<g>
</g>
<g>
</g>
<g>
</g>
<g>
</g>
<g>
</g>
</svg>
