<?xml version="1.0" encoding="iso-8859-1"?>
<!-- Generator: Adobe Illustrator 19.0.0, SVG Export Plug-In . SVG Version: 6.00 Build 0)  -->
<svg version="1.1" id="Capa_1" xmlns="http://www.w3.org/2000/svg" xmlns:xlink="http://www.w3.org/1999/xlink" x="0px" y="0px"
	 viewBox="0 0 512.002 512.002" style="enable-background:new 0 0 512.002 512.002;" xml:space="preserve">
<g>
	<rect x="281.601" y="179.202" style="fill:#E6E7E8;" width="93.867" height="256"/>
	<rect x="136.534" y="179.202" style="fill:#E6E7E8;" width="93.867" height="256"/>
</g>
<polygon style="fill:#96C9EF;" points="256.001,8.535 59.734,145.069 452.268,145.069 "/>
<g>
	<rect x="230.401" y="179.202" style="fill:#E6E7E8;" width="51.2" height="256"/>
	<rect x="85.334" y="179.202" style="fill:#E6E7E8;" width="51.2" height="256"/>
	<rect x="375.468" y="179.202" style="fill:#E6E7E8;" width="51.2" height="256"/>
</g>
<g>
	<path style="fill:#231F20;" d="M503.468,512.002H8.534c-4.71,0-8.533-3.823-8.533-8.533s3.823-8.533,8.533-8.533h494.933
		c4.71,0,8.533,3.823,8.533,8.533S508.178,512.002,503.468,512.002z"/>
	<path style="fill:#231F20;" d="M477.868,477.869H34.134c-4.71,0-8.533-3.823-8.533-8.533s3.823-8.533,8.533-8.533h443.733
		c4.71,0,8.533,3.823,8.533,8.533S482.578,477.869,477.868,477.869z"/>
	<path style="fill:#231F20;" d="M452.268,153.602H59.734c-4.71,0-8.533-3.823-8.533-8.533c0-2.79,1.365-5.41,3.661-7.006
		L251.129,1.53c2.927-2.039,6.818-2.039,9.745,0L457.14,138.063c3.866,2.688,4.821,8.013,2.133,11.878
		C457.678,152.237,455.058,153.602,452.268,153.602z M86.939,136.535h338.125L256.001,18.929L86.939,136.535z"/>
	<path style="fill:#231F20;" d="M452.268,426.669h-17.067V187.735h17.067c4.71,0,8.533-3.823,8.533-8.533s-3.823-8.533-8.533-8.533
		H59.734c-4.71,0-8.533,3.823-8.533,8.533s3.823,8.533,8.533,8.533h17.067v238.933H59.734c-4.71,0-8.533,3.823-8.533,8.533
		s3.823,8.533,8.533,8.533h392.533c4.71,0,8.533-3.823,8.533-8.533S456.978,426.669,452.268,426.669z M366.934,187.735v238.933
		h-76.8V187.735H366.934z M221.868,187.735v238.933h-76.8V187.735H221.868z M93.868,426.669V187.735h34.133v238.933H93.868z
		 M238.934,426.669V187.735h34.133v238.933H238.934z M384.001,426.669V187.735h34.133v238.933H384.001z"/>
</g>
<g>
</g>
<g>
</g>
<g>
</g>
<g>
</g>
<g>
</g>
<g>
</g>
<g>
</g>
<g>
</g>
<g>
</g>
<g>
</g>
<g>
</g>
<g>
</g>
<g>
</g>
<g>
</g>
<g>
</g>
</svg>
