<?xml version="1.0" encoding="iso-8859-1"?>
<!-- Generator: Adobe Illustrator 19.0.0, SVG Export Plug-In . SVG Version: 6.00 Build 0)  -->
<svg xmlns="http://www.w3.org/2000/svg" xmlns:xlink="http://www.w3.org/1999/xlink" version="1.1" id="Capa_1" x="0px" y="0px" viewBox="0 0 480 480" style="enable-background:new 0 0 480 480;" xml:space="preserve" width="512px" height="512px">
<g>
	<g>
		<path d="M472,464H8c-4.418,0-8,3.582-8,8s3.582,8,8,8h464c4.418,0,8-3.582,8-8S476.418,464,472,464z" fill="#FFFFFF"/>
	</g>
</g>
<g>
	<g>
		<path d="M448,432H32c-4.418,0-8,3.582-8,8s3.582,8,8,8h416c4.418,0,8-3.582,8-8S452.418,432,448,432z" fill="#FFFFFF"/>
	</g>
</g>
<g>
	<g>
		<path d="M424,400h-16V176h16c4.418,0,8-3.582,8-8s-3.582-8-8-8H56c-4.418,0-8,3.582-8,8s3.582,8,8,8h16v224H56    c-4.418,0-8,3.582-8,8s3.582,8,8,8h368c4.418,0,8-3.582,8-8S428.418,400,424,400z M120,400H88V176h32V400z M208,400h-72V176h72    V400z M256,400h-32V176h32V400z M344,400h-72V176h72V400z M392,400h-32V176h32V400z" fill="#FFFFFF"/>
	</g>
</g>
<g>
	<g>
		<path d="M428.568,129.432l-184-128c-2.746-1.91-6.39-1.91-9.136,0l-184,128c-3.627,2.523-4.523,7.508-2.001,11.135    c1.495,2.151,3.949,3.433,6.569,3.433h368c4.418,0,8-3.581,8.001-7.999C432.001,133.382,430.719,130.928,428.568,129.432z     M81.504,128L240,17.744L398.496,128H81.504z" fill="#FFFFFF"/>
	</g>
</g>
<g>
</g>
<g>
</g>
<g>
</g>
<g>
</g>
<g>
</g>
<g>
</g>
<g>
</g>
<g>
</g>
<g>
</g>
<g>
</g>
<g>
</g>
<g>
</g>
<g>
</g>
<g>
</g>
<g>
</g>
</svg>
